<?xml version="1.0" encoding="UTF-8"?>
<svg width="159px" height="142px" viewBox="0 0 159 142" version="1.1" xmlns="http://www.w3.org/2000/svg" xmlns:xlink="http://www.w3.org/1999/xlink">
    <!-- Generator: Sketch 43.2 (39069) - http://www.bohemiancoding.com/sketch -->
    <title>votelah</title>
    <desc>Created with Sketch.</desc>
    <defs></defs>
    <g id="Page-1" stroke="none" stroke-width="1" fill="none" fill-rule="evenodd">
        <g id="votelah">
            <path d="M36,123.5 C47,133.5 93,148.5 78,137.5 C69.7668632,131.462366 76,113.159323 95,95.5796615 C114,78 114.5,53.5 114.5,52 C114.5,50.5 107.5,71 85,89 C75.1098728,96.9121018 57.8831165,110.55974 67,121.5 C72,127.5 62.7660996,126.121945 54,125.5 C45.2339004,124.878055 34.3992799,122.0448 36,123.5 Z" id="Path-16" fill="#FF0000"></path>
            <path d="M12.5,60.5 C11,61.5 12.6690971,59.2000904 9,52.5 C5.33090288,45.7999096 1.89054573,43.9527286 1,39.5 C0.109454275,35.0472714 2,33 4.5,30 C7,27 26,26 26,25 C26,24 26,19 27.5,17.5 C29,16 53,15.5 57,17.5 C61,19.5 67,27 55,51 C43,75 24,81.5 20,81.5 C16,81.5 13.4617747,75.0477133 13,72 C12.5382253,68.9522867 15.5117581,69.224524 17,66 C18.4882419,62.775476 17,57.5 19,59 C21,60.5 28,72.5 32.5,62.5 C37,52.5 26,49 19,52.5 C12,56 14,59.5 12.5,60.5 Z" id="Path-2" fill="#FF3D49"></path>
            <path d="M65,29.5 C66.5,57 23,88.5 23,100.5 C23,112.5 26.0908616,115.222034 35.5,120 C44.9091384,124.777966 64,124.433106 64,122.5 C64,119 53.5,112 86,84.5 C118.5,57 116,38.5 112,29.5 C101.018012,4.79052756 81.5,-1 60.5,0.5 C39.5,2 37.5,15 37.5,15 C37.5,15 51,11.5 58,15.5 C65,19.5 64.7398928,24.7313679 65,29.5 Z" id="Path-14" fill="#FFB6B8"></path>
            <path d="M34.5606699,79 C33.5606699,79 20.8109938,83.297616 18.5606699,86.5 C16.310346,89.702384 21.5606699,105 21.5606699,101.5 C21.5606699,99.9451471 21.5606699,94 25.0606699,89.5 C28.5606699,85 35.5606699,79 34.5606699,79 Z" id="Path-15" fill="#FF0000"></path>
            <g id="Group-4" transform="translate(35.000000, 10.000000)">
                <g id="Group-2" transform="translate(0.500000, 0.000000)" fill="#221E1E">
                    <polygon id="Path-17" points="0 26.5 10.5 24.5 23 53.5 20 22 29 20 32.5 65.5 21 68.5"></polygon>
                    <path d="M34.4836885,29.8141715 C32.5967147,23.233512 36.397914,16.3702242 42.977135,14.483663 C49.5549098,12.5975164 56.4142634,16.3938216 58.303918,22.9838306 L64.8389934,45.7743467 C66.7259671,52.3550062 62.9247678,59.2182939 56.3455468,61.1048552 C49.767772,62.9910018 42.9084185,59.1946965 41.0187638,52.6046876 L34.4836885,29.8141715 Z M42.3072316,29.8743596 L47.8202923,49.100687 C48.5047637,51.4877227 50.9971754,52.8704862 53.3861812,52.1854498 C55.7703258,51.5018073 57.1565973,49.0086546 56.4716475,46.6199508 L50.9585868,27.3936234 C50.2741154,25.0065877 47.7817037,23.6238242 45.3926979,24.3088606 C43.0085532,24.9925031 41.6222818,27.4856557 42.3072316,29.8743596 Z" id="Combined-Shape"></path>
                    <polygon id="Path-18" points="58 12.5 60.5 21.5 66.5 20 75 55 84 53 75 18.5 80.5 17 78 7"></polygon>
                    <polygon id="Path-19" points="81 6 93.5 49.5 115.5 44 112.5 35 101 38 98.25 28.5 108.5 25.5 105.5 16.5 95.5 19.5 93.5 13 104 10 101 0"></polygon>
                </g>
                <g id="Group-3" transform="translate(25.000000, 48.000000)" fill="#FFFFFF">
                    <polygon id="Path-20" points="18.5 55 8.5 22 0.5 24.5 12.5 66 32 61 29.5 52"></polygon>
                    <path d="M35,61 L33.5,15.5 L41,14 L61,55.5 L54,57 L50.5,48.5 L41,50 L41,59.5 L35,61 Z M39.7222222,43.5 L48.7222222,41.5 C48.7222222,41.5 40.2222222,25 39.7222222,25 C39.2222222,25 39.7222222,43.5 39.7222222,43.5 Z" id="Combined-Shape"></path>
                    <polygon id="Path-22" points="51.5 11.5 64 55 71.5 53.5 66.5 34.5 75.5 32.5 80.5 51.5 87.5 50 77 5.5 70.25 7 74.5 24 64.5 26 60 9.5"></polygon>
                    <rect id="Rectangle" transform="translate(91.590846, 20.217338) rotate(-9.000000) translate(-91.590846, -20.217338) " x="88.5908464" y="0.223141659" width="6" height="39.9883928"></rect>
                    <circle id="Oval" cx="95.5" cy="48" r="3"></circle>
                </g>
            </g>
        </g>
    </g>
</svg>